<svg width="20" height="20" viewBox="0 0 20 20" xmlns="http://www.w3.org/2000/svg">
    <g fill="none" fill-rule="evenodd">
        <path fill="none" d="M0 0h20v20H0z"/>
        <path d="M7.333 18.38v-2.897c0-1.6 1.194-2.897 2.666-2.897 1.473 0 2.667 1.297 2.667 2.897v2.896m-5.333 0H4.666c-1.157-.012-2.137-.928-2.322-2.168l-.307-9.012c-.184-1.133.33-2.265 1.27-2.795l5.639-3.127a2.145 2.145 0 0 1 2.108 0l5.639 3.127c.94.53 1.454 1.662 1.27 2.795l-.308 9.012c-.185 1.24-1.166 2.156-2.322 2.168h-2.667m-5.333 0h5.333" stroke="#6E6E72" stroke-linecap="round" stroke-linejoin="round" stroke-width="1.5"/>
    </g>
</svg>
